STARTFONT 2.1
COMMENT Exported by Fony v1.4.7
FONT 19X29TG
SIZE 28 96 96
FONTBOUNDINGBOX 19 27 0 -6
STARTPROPERTIES 6
COPYRIGHT "Tangar @ http://tangar.info for TomeNET @ http://tomenet.eu"
RESOLUTION_X 96
RESOLUTION_Y 96
FONT_ASCENT 22
FONT_DESCENT 6
DEFAULT_CHAR 31
ENDPROPERTIES
CHARS 256
STARTCHAR 000
ENCODING 0
SWIDTH 1368 0
DWIDTH 19 0
BBX 19 28 0 -6
BITMAP
800000
400020
400020
200040
100080
100080
080100
040200
040200
020400
010800
009000
006000
006000
000000
002000
006000
009000
008800
020400
020200
040200
080100
080080
100080
200040
200020
400020
ENDCHAR
STARTCHAR 001
ENCODING 1
SWIDTH 1368 0
DWIDTH 19 0
BBX 16 1 1 -4
BITMAP
9249
ENDCHAR
STARTCHAR 002
ENCODING 2
SWIDTH 1368 0
DWIDTH 19 0
BBX 19 28 0 -6
BITMAP
FFFFE0
FFFFE0
FFFFE0
FFFFE0
FFFFE0
FFFFE0
FFFFE0
FFFFE0
FFFFE0
FFFFE0
FFFFE0
FFFFE0
FFFFE0
FFFFE0
FFFFE0
FFFFE0
FFFFE0
FFFFE0
FFFFE0
FFFFE0
FFFFE0
FFFFE0
FFFFE0
FFFFE0
FFFFE0
FFFFE0
FFFFE0
FFFFE0
ENDCHAR
STARTCHAR 003
ENCODING 3
SWIDTH 1368 0
DWIDTH 19 0
BBX 17 1 1 -3
BITMAP
DB6D80
ENDCHAR
STARTCHAR 004
ENCODING 4
SWIDTH 1368 0
DWIDTH 19 0
BBX 5 5 7 -4
BITMAP
70
E8
F8
F8
70
ENDCHAR
STARTCHAR 005
ENCODING 5
SWIDTH 1368 0
DWIDTH 19 0
BBX 18 3 1 -2
BITMAP
925240
000000
444880
ENDCHAR
STARTCHAR 006
ENCODING 6
SWIDTH 1368 0
DWIDTH 19 0
BBX 18 6 1 -2
BITMAP
021000
052800
021000
904240
00A000
444880
ENDCHAR
STARTCHAR 007
ENCODING 7
SWIDTH 1368 0
DWIDTH 19 0
BBX 18 1 0 -3
BITMAP
F7BBC0
ENDCHAR
STARTCHAR 008
ENCODING 8
SWIDTH 1368 0
DWIDTH 19 0
BBX 19 4 0 6
BITMAP
211080
211080
52A940
8C4620
ENDCHAR
STARTCHAR 009
ENCODING 9
SWIDTH 1368 0
DWIDTH 19 0
BBX 6 5 7 5
BITMAP
84
CC
FC
78
30
ENDCHAR
STARTCHAR 010
ENCODING 10
SWIDTH 1368 0
DWIDTH 19 0
BBX 19 26 0 -6
BITMAP
FF8FE0
FFDFE0
FFDFE0
FFDFE0
FF8FE0
000000
000000
F0FFE0
F9FFE0
F9FFE0
F9FFE0
F9FFE0
F0FFE0
000000
000000
FF8FE0
FFDFE0
FFDFE0
FF8FE0
000000
000000
F0FFE0
F9FFE0
F9FFE0
F9FFE0
F0FFE0
ENDCHAR
STARTCHAR 011
ENCODING 11
SWIDTH 1368 0
DWIDTH 19 0
BBX 19 26 0 -6
BITMAP
FFDFE0
FFDFE0
FFDFE0
FFDFE0
FFDFE0
000000
000000
F9FFE0
F9FFE0
F9FFE0
F9FFE0
F9FFE0
F9FFE0
000000
000000
FFDFE0
FFDFE0
FFDFE0
FFDFE0
000000
000000
F9FFE0
F9FFE0
F9FFE0
F9FFE0
F9FFE0
ENDCHAR
STARTCHAR 012
ENCODING 12
SWIDTH 1368 0
DWIDTH 19 0
BBX 19 26 0 -6
BITMAP
FFDFE0
FFDFE0
FFDBE0
FFDBE0
FFDFE0
000000
000000
F9FFE0
C9FFE0
C9FFE0
F9FFE0
F9FFE0
F9FFE0
000000
000000
FFDFE0
FFDBE0
FFDFE0
FFDFE0
000000
000000
F9FFE0
C9FFE0
C9FFE0
F9FFE0
F9FFE0
ENDCHAR
STARTCHAR 013
ENCODING 13
SWIDTH 1368 0
DWIDTH 19 0
BBX 19 28 0 -6
BITMAP
FFFFE0
7EFBE0
7EFBE0
3C01E0
3DF9E0
83FC00
C60600
E80360
E80360
6E0760
2FFF60
2FFF60
87FC00
C9F900
E9FB60
EE0760
6E0760
67FE60
37FCE0
81F800
C0F000
FC03E0
FFFFE0
7EFBE0
7EFBE0
3C71C0
BD75C0
C38E20
ENDCHAR
STARTCHAR 014
ENCODING 14
SWIDTH 1368 0
DWIDTH 19 0
BBX 19 28 0 -6
BITMAP
000800
001C00
001C00
003E00
083E00
0C7F00
1C7700
1E4F80
1ECF80
36FF80
2FBFC0
6F3FC0
7EDFE0
7EFF20
FCE720
F9F7E0
F1B3E0
F3BBE0
E3D980
87DC00
07FE00
0FFE00
0FFF00
1CFF00
3FFF80
3FFF80
7FFFC0
FFFFE0
ENDCHAR
STARTCHAR 015
ENCODING 15
SWIDTH 1368 0
DWIDTH 19 0
BBX 19 26 0 -6
BITMAP
018000
03C000
06E000
07F000
0FB800
1FB800
1FFC00
3FFC00
7FCC00
7FC400
FFB800
FE7C00
CEFE00
C9DF00
F9DF00
FBFF80
377F80
0FFFC0
0FFFC0
1FFFC0
1FFFE0
3FFFE0
3FFCE0
7FFFE0
7FFFE0
7FFFE0
ENDCHAR
STARTCHAR 016
ENCODING 16
SWIDTH 1368 0
DWIDTH 19 0
BBX 19 28 0 -6
BITMAP
FFFFE0
FFFFE0
C11A60
FFFFE0
C46860
FFFFE0
D1A0E0
FFFFE0
C68360
FFFFE0
DA0D60
FFFFE0
E83460
FFFFE0
E0D060
FFFFE0
C34060
FFFFE0
CD0160
FFFFE0
F40460
FFFFE0
D01060
FFFFE0
C04060
FFFFE0
FFFFE0
FFFFE0
ENDCHAR
STARTCHAR 017
ENCODING 17
SWIDTH 1368 0
DWIDTH 19 0
BBX 19 28 0 -6
BITMAP
FFFFE0
FFFFE0
C11A60
C23460
C46860
C8D060
D1A0E0
E341E0
C68360
CD06E0
DA0D60
F41A60
E83460
D06860
E0D060
C1A060
C34060
C680E0
CD0160
DA0260
F40460
E80860
D01060
E02060
C04060
C08060
FFFFE0
FFFFE0
ENDCHAR
STARTCHAR 018
ENCODING 18
SWIDTH 1368 0
DWIDTH 19 0
BBX 19 28 0 -6
BITMAP
FFFFE0
FFFFE0
C18060
C38060
C58060
C98060
D18060
E38060
C78060
CD8060
DB8060
F58060
E98060
D18060
E18060
C18060
C38060
C78060
CD8060
DB8060
F58060
E98060
D18060
E18060
C18060
C18060
FFFFE0
FFFFE0
ENDCHAR
STARTCHAR 019
ENCODING 19
SWIDTH 1368 0
DWIDTH 19 0
BBX 19 28 0 -6
BITMAP
FFFFE0
FFFFE0
C13260
FFFFE0
C4C9E0
FFFFE0
D32660
FFFFE0
CC9960
FFFFE0
FFFFE0
FFFFE0
C00060
FFFFE0
C8E660
FFFFE0
DDEE60
FFFFE0
CDE660
FFFFE0
CFFE60
FFFFE0
C2E060
FFFFE0
C1F060
FFFFE0
FFFFE0
FFFFE0
ENDCHAR
STARTCHAR 020
ENCODING 20
SWIDTH 1368 0
DWIDTH 19 0
BBX 19 28 0 -6
BITMAP
FFFFE0
FFFFE0
C13260
C264E0
C4C9E0
C99360
D32660
E64CE0
CC9960
D93260
FFFFE0
FFFFE0
C00060
C04260
C8E660
CCF660
DDEE60
CEF760
CDE660
DCFF60
CFFE60
C7E460
C2E060
C1F060
C1F060
C0E060
FFFFE0
FFFFE0
ENDCHAR
STARTCHAR 021
ENCODING 21
SWIDTH 1368 0
DWIDTH 19 0
BBX 19 28 0 -6
BITMAP
FFFFE0
FFFFE0
C18060
C38060
C58060
C98060
D38060
E78060
CD8060
D98060
FFFFE0
FFFFE0
C00060
C04260
C8E660
CCF660
DDEE60
CEF760
CDE660
DCFF60
CFFE60
C7E460
C2E060
C1F060
C1F060
C0E060
FFFFE0
FFFFE0
ENDCHAR
STARTCHAR 022
ENCODING 22
SWIDTH 1368 0
DWIDTH 19 0
BBX 19 28 0 -6
BITMAP
800000
400020
400020
200040
100080
100080
080100
040200
040200
020400
010800
009000
006000
006000
000000
002000
006000
009000
008800
020400
020200
040200
080100
080080
100080
200040
200020
400020
ENDCHAR
STARTCHAR 023
ENCODING 23
SWIDTH 1368 0
DWIDTH 19 0
BBX 19 28 0 -6
BITMAP
800000
400020
400020
200040
100080
100080
080100
040200
040200
020400
010800
009000
006000
006000
000000
002000
006000
009000
008800
020400
020200
040200
080100
080080
100080
200040
200020
400020
ENDCHAR
STARTCHAR 024
ENCODING 24
SWIDTH 1368 0
DWIDTH 19 0
BBX 19 28 0 -6
BITMAP
800000
400020
400020
200040
100080
100080
080100
040200
040200
020400
010800
009000
006000
006000
000000
002000
006000
009000
008800
020400
020200
040200
080100
080080
100080
200040
200020
400020
ENDCHAR
STARTCHAR 025
ENCODING 25
SWIDTH 1368 0
DWIDTH 19 0
BBX 19 28 0 -6
BITMAP
800000
400020
400020
200040
100080
100080
080100
040200
040200
020400
010800
009000
006000
006000
000000
002000
006000
009000
008800
020400
020200
040200
080100
080080
100080
200040
200020
400020
ENDCHAR
STARTCHAR 026
ENCODING 26
SWIDTH 1368 0
DWIDTH 19 0
BBX 19 28 0 -6
BITMAP
800000
400020
400020
200040
100080
100080
080100
040200
040200
020400
010800
009000
006000
006000
000000
002000
006000
009000
008800
020400
020200
040200
080100
080080
100080
200040
200020
400020
ENDCHAR
STARTCHAR 027
ENCODING 27
SWIDTH 1368 0
DWIDTH 19 0
BBX 19 28 0 -6
BITMAP
800000
400020
400020
200040
100080
100080
080100
040200
040200
020400
010800
009000
006000
006000
000000
002000
006000
009000
008800
020400
020200
040200
080100
080080
100080
200040
200020
400020
ENDCHAR
STARTCHAR 028
ENCODING 28
SWIDTH 1368 0
DWIDTH 19 0
BBX 19 28 0 -6
BITMAP
800000
400020
400020
200040
100080
100080
080100
040200
040200
020400
010800
009000
006000
006000
000000
002000
006000
009000
008800
020400
020200
040200
080100
080080
100080
200040
200020
400020
ENDCHAR
STARTCHAR 029
ENCODING 29
SWIDTH 1368 0
DWIDTH 19 0
BBX 19 28 0 -6
BITMAP
800000
400020
400020
200040
100080
100080
080100
040200
040200
020400
010800
009000
006000
006000
000000
002000
006000
009000
008800
020400
020200
040200
080100
080080
100080
200040
200020
400020
ENDCHAR
STARTCHAR 030
ENCODING 30
SWIDTH 1368 0
DWIDTH 19 0
BBX 19 28 0 -6
BITMAP
800000
400020
400020
200040
100080
100080
080100
040200
040200
020400
010800
009000
006000
006000
000000
002000
006000
009000
008800
020400
020200
040200
080100
080080
100080
200040
200020
400020
ENDCHAR
STARTCHAR 031
ENCODING 31
SWIDTH 1368 0
DWIDTH 19 0
BBX 19 28 0 -6
BITMAP
800000
400020
400020
200040
100080
100080
080100
040200
040200
020400
010800
009000
006000
006000
000000
002000
006000
009000
008800
020400
020200
040200
080100
080080
100080
200040
200020
400020
ENDCHAR
STARTCHAR 032
ENCODING 32
SWIDTH 1368 0
DWIDTH 19 0
BBX 0 0 0 0
BITMAP
ENDCHAR
STARTCHAR 033
ENCODING 33
SWIDTH 1368 0
DWIDTH 19 0
BBX 6 22 7 -3
BITMAP
30
78
78
7C
FC
EC
EC
FC
FC
FC
FC
F8
F8
F8
70
70
00
00
20
70
70
20
ENDCHAR
STARTCHAR 034
ENCODING 34
SWIDTH 1368 0
DWIDTH 19 0
BBX 9 5 6 11
BITMAP
F780
F780
F780
E380
C180
ENDCHAR
STARTCHAR 035
ENCODING 35
SWIDTH 1368 0
DWIDTH 19 0
BBX 12 13 4 1
BITMAP
39C0
39C0
FFF0
FFF0
FFF0
39C0
39C0
39C0
FFF0
FFF0
FFF0
39C0
39C0
ENDCHAR
STARTCHAR 036
ENCODING 36
SWIDTH 1368 0
DWIDTH 19 0
BBX 14 26 3 -6
BITMAP
00C0
01C0
01C0
07C0
0FF0
1FF8
3DBC
799C
718C
7980
3F80
3F80
0FE0
03F0
0338
033C
031C
E31C
F33C
7F78
3FF0
1FE0
0780
0600
0600
0600
ENDCHAR
STARTCHAR 037
ENCODING 37
SWIDTH 1368 0
DWIDTH 19 0
BBX 17 19 2 -1
BITMAP
000800
000800
381800
7C1800
C63800
C67000
C6E000
7CE000
38C000
00C000
018E00
019F00
033180
033180
073180
0E1F00
0C0E00
1C0000
380000
ENDCHAR
STARTCHAR 038
ENCODING 38
SWIDTH 1368 0
DWIDTH 19 0
BBX 15 17 3 -1
BITMAP
07C0
0FE0
1830
1830
18E0
0DC0
0F80
0F00
1F00
3986
71C6
E0EE
E0FC
F03C
7FFE
3FEE
1F86
ENDCHAR
STARTCHAR 039
ENCODING 39
SWIDTH 1368 0
DWIDTH 19 0
BBX 5 9 7 7
BITMAP
78
78
78
78
10
30
20
60
C0
ENDCHAR
STARTCHAR 040
ENCODING 40
SWIDTH 1368 0
DWIDTH 19 0
BBX 6 23 8 -4
BITMAP
04
0C
18
38
30
30
20
E0
C0
C0
C0
C0
C0
C0
C0
E0
20
30
30
38
18
0C
04
ENDCHAR
STARTCHAR 041
ENCODING 41
SWIDTH 1368 0
DWIDTH 19 0
BBX 6 23 6 -4
BITMAP
80
C0
60
70
30
30
10
1C
0C
0C
0C
0C
0C
0C
0C
1C
10
30
30
70
60
C0
80
ENDCHAR
STARTCHAR 042
ENCODING 42
SWIDTH 1368 0
DWIDTH 19 0
BBX 12 13 3 1
BITMAP
0200
0200
7270
3AE0
1FC0
0F80
FFF0
7FF0
0F80
1FC0
3AE0
6230
0200
ENDCHAR
STARTCHAR 043
ENCODING 43
SWIDTH 1368 0
DWIDTH 19 0
BBX 16 15 2 0
BITMAP
03C0
03C0
03C0
03C0
03C0
FFFF
FFFF
FFFF
FFFF
FFFF
03C0
03C0
03C0
03C0
03C0
ENDCHAR
STARTCHAR 044
ENCODING 44
SWIDTH 1368 0
DWIDTH 19 0
BBX 8 9 5 -6
BITMAP
1E
3F
3F
3F
1E
0C
18
38
E0
ENDCHAR
STARTCHAR 045
ENCODING 45
SWIDTH 1368 0
DWIDTH 19 0
BBX 15 4 3 5
BITMAP
FFFE
FFFE
FFFE
FFFE
ENDCHAR
STARTCHAR 046
ENCODING 46
SWIDTH 1368 0
DWIDTH 19 0
BBX 4 5 8 5
BITMAP
60
F0
F0
F0
60
ENDCHAR
STARTCHAR 047
ENCODING 47
SWIDTH 1368 0
DWIDTH 19 0
BBX 11 19 4 -1
BITMAP
0060
0060
00E0
01E0
01C0
01C0
0380
0300
0300
0600
0E00
0C00
1C00
1C00
3800
7000
F000
E000
E000
ENDCHAR
STARTCHAR 048
ENCODING 48
SWIDTH 1368 0
DWIDTH 19 0
BBX 12 18 4 -1
BITMAP
0380
07C0
0FE0
1FE0
3CE0
7870
7870
70F0
70F0
70F0
F1E0
E1E0
E1E0
E3C0
F380
7F00
7E00
3C00
ENDCHAR
STARTCHAR 049
ENCODING 49
SWIDTH 1368 0
DWIDTH 19 0
BBX 8 18 6 -1
BITMAP
06
0E
1E
3E
7E
FE
0C
0C
0C
0C
0C
1C
1C
1C
1C
3C
7E
FF
ENDCHAR
STARTCHAR 050
ENCODING 50
SWIDTH 1368 0
DWIDTH 19 0
BBX 13 19 3 -1
BITMAP
03E0
07F0
0FF8
1E38
3C38
3C38
3038
0078
0070
00F0
01E0
01C0
0380
0700
0E00
3C38
FFF8
FFF8
FFF8
ENDCHAR
STARTCHAR 051
ENCODING 51
SWIDTH 1368 0
DWIDTH 19 0
BBX 12 18 3 -1
BITMAP
03C0
07E0
0FE0
1CF0
18F0
0070
00F0
01E0
03C0
07E0
01E0
0070
0070
8070
F0F0
7FE0
3FC0
1F00
ENDCHAR
STARTCHAR 052
ENCODING 52
SWIDTH 1368 0
DWIDTH 19 0
BBX 10 18 5 -1
BITMAP
3000
3000
30C0
70C0
71C0
E180
E380
FF80
FF80
FF80
0380
0300
0700
0700
0700
0600
0600
0600
ENDCHAR
STARTCHAR 053
ENCODING 53
SWIDTH 1368 0
DWIDTH 19 0
BBX 14 17 3 -1
BITMAP
07F8
07FC
0E00
0E00
1E00
1E00
3F80
3FC0
01E0
00E0
0060
0060
C060
F1C0
7FC0
3F80
0E00
ENDCHAR
STARTCHAR 054
ENCODING 54
SWIDTH 1368 0
DWIDTH 19 0
BBX 11 17 4 -1
BITMAP
0780
1FC0
38E0
7860
E000
E000
E700
EF80
FFC0
F9E0
F0E0
E060
E060
F1C0
7FC0
3F80
1E00
ENDCHAR
STARTCHAR 055
ENCODING 55
SWIDTH 1368 0
DWIDTH 19 0
BBX 14 17 3 -1
BITMAP
3FFC
7FF8
E078
E070
00E0
00E0
01C0
01C0
0180
0380
0300
0700
0600
0E00
1E00
1E00
1E00
ENDCHAR
STARTCHAR 056
ENCODING 56
SWIDTH 1368 0
DWIDTH 19 0
BBX 11 18 4 -1
BITMAP
0780
0FC0
1FE0
38E0
38E0
38E0
3FC0
1F80
1F00
3F00
7F80
63C0
E1C0
C1C0
E3C0
7F80
7F00
3C00
ENDCHAR
STARTCHAR 057
ENCODING 57
SWIDTH 1368 0
DWIDTH 19 0
BBX 12 17 4 -1
BITMAP
03C0
0FE0
1FE0
3CF0
3870
3870
3CF0
3FE0
1FE0
0FE0
01C0
01C0
03C0
8380
C700
FE00
7C00
ENDCHAR
STARTCHAR 058
ENCODING 58
SWIDTH 1368 0
DWIDTH 19 0
BBX 5 13 8 -3
BITMAP
20
70
F8
F8
70
20
00
20
70
F8
F8
70
20
ENDCHAR
STARTCHAR 059
ENCODING 59
SWIDTH 1368 0
DWIDTH 19 0
BBX 6 16 7 -5
BITMAP
10
38
7C
7C
38
10
00
10
38
7C
7C
38
10
30
60
C0
ENDCHAR
STARTCHAR 060
ENCODING 60
SWIDTH 1368 0
DWIDTH 19 0
BBX 19 25 0 -5
BITMAP
0000E0
0000E0
0000E0
001CE0
001CE0
001CE0
01DCE0
01DCE0
19DCE0
19DCE0
99DCE0
99DCE0
99DCE0
99DCE0
99DCE0
19DCE0
19DCE0
01DCE0
01DCE0
001CE0
001CE0
001CE0
0000E0
0000E0
0000E0
ENDCHAR
STARTCHAR 061
ENCODING 61
SWIDTH 1368 0
DWIDTH 19 0
BBX 15 8 3 3
BITMAP
FFFE
FFFE
FFFE
0000
0000
0000
FFFE
FFFE
ENDCHAR
STARTCHAR 062
ENCODING 62
SWIDTH 1368 0
DWIDTH 19 0
BBX 18 25 1 -5
BITMAP
E00000
E00000
E00000
E70000
E70000
E70000
E77000
E77000
E77300
E77300
E77300
E77340
E77340
E77340
E77300
E77300
E77300
E77000
E77000
E70000
E70000
E70000
E00000
E00000
E00000
ENDCHAR
STARTCHAR 063
ENCODING 63
SWIDTH 1368 0
DWIDTH 19 0
BBX 12 22 4 -4
BITMAP
0780
1FC0
3FE0
78E0
F070
F070
0030
0070
00E0
01E0
03C0
0380
0700
0E00
0C00
0000
0000
0C00
1E00
1E00
1E00
0C00
ENDCHAR
STARTCHAR 064
ENCODING 64
SWIDTH 1368 0
DWIDTH 19 0
BBX 15 26 3 -5
BITMAP
0380
07C0
07C0
07C0
07C0
0380
0380
07C0
1FF0
3FF8
7FFC
77DC
E7CE
E7CE
C7C6
CFE6
0FE0
0EE0
0EE0
1C70
1C70
1C70
1C70
1C70
3C78
783C
ENDCHAR
STARTCHAR 065
ENCODING 65
SWIDTH 1368 0
DWIDTH 19 0
BBX 18 21 1 -2
BITMAP
078000
1FC000
3FE000
3FF000
31F800
21F800
03BC00
039E00
070E00
070E00
0E0F00
0E0F00
0E0F00
1FFF00
1FFF80
1FFF80
3C0780
3C0780
7C07C0
7C07C0
FE0FC0
ENDCHAR
STARTCHAR 066
ENCODING 66
SWIDTH 1368 0
DWIDTH 19 0
BBX 15 18 2 -1
BITMAP
FF80
7FE0
3FF0
3C78
3C38
3C38
3C70
3FF0
3FF8
3FFC
3C0E
3C06
3C06
3C0E
3FFC
3FF8
3FF0
3FC0
ENDCHAR
STARTCHAR 067
ENCODING 67
SWIDTH 1368 0
DWIDTH 19 0
BBX 16 19 2 -1
BITMAP
03F8
0FFC
1FFE
3FFE
7F0F
7E0F
F80E
F018
F000
F000
F000
F000
F000
F000
F802
7E1E
3FFC
1FF8
07E0
ENDCHAR
STARTCHAR 068
ENCODING 68
SWIDTH 1368 0
DWIDTH 19 0
BBX 18 20 1 -2
BITMAP
7FF000
3FFC00
3FFE00
3FFF00
380F80
380780
3803C0
3803C0
3803C0
3803C0
3803C0
3803C0
3803C0
3803C0
3803C0
380F80
3FFF80
3FFF00
7FFE00
FFF800
ENDCHAR
STARTCHAR 069
ENCODING 69
SWIDTH 1368 0
DWIDTH 19 0
BBX 14 22 2 -3
BITMAP
0004
FFFC
7FFC
3FFC
3FFC
3800
3800
3800
3800
3F80
3F80
3F80
3F80
3800
3800
3800
3800
3FFC
3FFC
3FFC
3FFC
0004
ENDCHAR
STARTCHAR 070
ENCODING 70
SWIDTH 1368 0
DWIDTH 19 0
BBX 14 20 4 -2
BITMAP
FFFC
FFFC
FFFC
FFFC
F00C
F000
F000
F000
FE00
FF00
FF80
FFC0
F000
F000
F000
F000
F000
F000
F000
F000
ENDCHAR
STARTCHAR 071
ENCODING 71
SWIDTH 1368 0
DWIDTH 19 0
BBX 17 21 1 -2
BITMAP
03F000
0FFC00
1FFE00
3FFF00
3F0F00
7C0780
7C0780
780000
F00000
F00000
F00000
F01E00
F07F00
F0FF80
F0E780
780380
7F0700
3FFF00
3FFF00
0FFE00
03F800
ENDCHAR
STARTCHAR 072
ENCODING 72
SWIDTH 1368 0
DWIDTH 19 0
BBX 16 20 2 -2
BITMAP
F81F
781E
781E
781E
781E
781E
781E
781E
7FFE
7FFE
7FFE
781E
781E
781E
781E
781E
781E
781E
781E
FC3F
ENDCHAR
STARTCHAR 073
ENCODING 73
SWIDTH 1368 0
DWIDTH 19 0
BBX 9 19 6 -1
BITMAP
FF80
FF80
FF80
1C00
1C00
1C00
1C00
1C00
1C00
1C00
1C00
1C00
1C00
1C00
1C00
1C00
FF80
FF80
FF80
ENDCHAR
STARTCHAR 074
ENCODING 74
SWIDTH 1368 0
DWIDTH 19 0
BBX 16 21 2 -2
BITMAP
003F
003F
003F
001E
001E
001E
001E
001E
001E
001E
001E
001E
001E
F81E
F81E
701E
783E
3C7E
3FFC
1FF8
07F0
ENDCHAR
STARTCHAR 075
ENCODING 75
SWIDTH 1368 0
DWIDTH 19 0
BBX 18 21 0 -2
BITMAP
000E00
3E1F00
7E3F80
FE3980
3C7880
387000
387000
38C000
39C000
3B8000
3F8000
3F8000
3F8000
3FC000
39E040
38E0C0
3879C0
387F80
3C3F80
7C3F80
FC0F00
ENDCHAR
STARTCHAR 076
ENCODING 76
SWIDTH 1368 0
DWIDTH 19 0
BBX 14 19 2 -1
BITMAP
FC00
7C00
3C00
3C00
3C00
3C00
3C00
3C00
3C00
3C00
3C00
3C00
3C00
3C00
3C00
3C0C
3FFC
3FFC
3FFC
ENDCHAR
STARTCHAR 077
ENCODING 77
SWIDTH 1368 0
DWIDTH 19 0
BBX 18 20 1 -2
BITMAP
180380
1C0380
1C0780
1C0780
1E0780
1E0F80
3F0DC0
3F9DC0
3B9DC0
39B9C0
39B9C0
38B9C0
78F1C0
7871C0
7871C0
7861C0
7801C0
FC03C0
FC03C0
FE07C0
ENDCHAR
STARTCHAR 078
ENCODING 78
SWIDTH 1368 0
DWIDTH 19 0
BBX 17 21 2 -3
BITMAP
000180
000300
700F00
780F00
7C0F00
7E0F00
770F00
730F00
730F00
718F00
718F00
70CE00
70EE00
70FE00
707E00
703E00
701E00
701E00
701E00
600000
C00000
ENDCHAR
STARTCHAR 079
ENCODING 79
SWIDTH 1368 0
DWIDTH 19 0
BBX 17 17 2 -1
BITMAP
07E000
1FF800
3FFC00
7FFE00
FC0700
F80380
F90380
F10380
F00380
F00380
F00380
F00380
700700
3C1E00
1FFC00
0FF800
03E000
ENDCHAR
STARTCHAR 080
ENCODING 80
SWIDTH 1368 0
DWIDTH 19 0
BBX 15 20 2 -2
BITMAP
FFE0
7FF0
3FF8
301C
300E
3006
300E
301E
3FFC
3FF8
3FF0
3000
3000
3000
3000
3000
3000
3000
7000
F000
ENDCHAR
STARTCHAR 081
ENCODING 81
SWIDTH 1368 0
DWIDTH 19 0
BBX 18 23 1 -4
BITMAP
0FE000
3FF000
7FF800
7FFC00
7FFE00
FC3E00
F01F00
E00700
E00380
C00180
C00180
C00180
C00180
C06180
C06180
E06180
707F00
3C1E00
1FFF00
0FFF00
000780
0001C0
000040
ENDCHAR
STARTCHAR 082
ENCODING 82
SWIDTH 1368 0
DWIDTH 19 0
BBX 17 20 2 -1
BITMAP
FFC000
7FE000
7FF000
7FF800
707800
703C00
701C00
703C00
707800
7FF000
7FE000
7FC000
71E000
70E000
70F000
70F000
7C7F80
7C3F80
7C1F80
FC0F00
ENDCHAR
STARTCHAR 083
ENCODING 83
SWIDTH 1368 0
DWIDTH 19 0
BBX 17 19 1 -1
BITMAP
00F000
03FC00
07FE00
0F1F00
1C0700
3C0380
380000
3C0000
1FE000
0FF800
03FC00
001E00
000700
000700
F00700
3C0F00
1FFE00
0FFC00
03F000
ENDCHAR
STARTCHAR 084
ENCODING 84
SWIDTH 1368 0
DWIDTH 19 0
BBX 17 20 1 -1
BITMAP
800080
FFFF80
FFFF80
FFFF80
FFFF80
03E000
03E000
03E000
03E000
03E000
03E000
03E000
03E000
03E000
03E000
03E000
03E000
03E000
03E000
07F000
ENDCHAR
STARTCHAR 085
ENCODING 85
SWIDTH 1368 0
DWIDTH 19 0
BBX 15 19 2 -1
BITMAP
F83E
F01E
F01E
F01E
F01E
F01E
F01E
F01E
F01E
F01E
F01E
F01E
F01E
F01E
F01E
783C
7FFC
3FF8
1FF0
ENDCHAR
STARTCHAR 086
ENCODING 86
SWIDTH 1368 0
DWIDTH 19 0
BBX 17 19 1 -1
BITMAP
FE1F80
FE1F80
F80780
700780
700700
700700
380E00
380E00
381C00
381C00
1C3800
1C3800
0C7800
0E7000
0E7000
07E000
07C000
03C000
038000
ENDCHAR
STARTCHAR 087
ENCODING 87
SWIDTH 1368 0
DWIDTH 19 0
BBX 17 18 1 -1
BITMAP
F00780
700700
700700
700700
700700
700700
700700
700700
700700
708700
71C700
73E700
73E700
777700
7C1F00
7C0F00
780F00
700600
ENDCHAR
STARTCHAR 088
ENCODING 88
SWIDTH 1368 0
DWIDTH 19 0
BBX 17 21 1 -1
BITMAP
F00780
F00780
780F00
380E00
1C1C00
1E3C00
0E3800
077000
03E000
03E000
03E000
03E000
07F000
077000
0F7800
0E3800
1C1C00
380E00
700700
F00780
F00780
ENDCHAR
STARTCHAR 089
ENCODING 89
SWIDTH 1368 0
DWIDTH 19 0
BBX 17 22 1 -2
BITMAP
F00780
F00780
700700
700700
380E00
380E00
1C1C00
0C1800
063000
077000
03E000
03E000
01C000
018000
018000
018000
018000
018000
018000
018000
07E000
03C000
ENDCHAR
STARTCHAR 090
ENCODING 90
SWIDTH 1368 0
DWIDTH 19 0
BBX 17 19 1 -1
BITMAP
200000
600000
FFFF00
FFFF00
003E00
003C00
00F000
00F000
00E000
01C000
038000
038000
070000
0F0000
0E0000
7C0180
FFFF00
FFFF00
FFFE00
ENDCHAR
STARTCHAR 091
ENCODING 91
SWIDTH 1368 0
DWIDTH 19 0
BBX 8 24 7 -5
BITMAP
FF
FF
FF
FF
E0
E0
E0
E0
E0
E0
E0
E0
E0
E0
E0
E0
E0
E0
E0
E0
FF
FF
FF
FF
ENDCHAR
STARTCHAR 092
ENCODING 92
SWIDTH 1368 0
DWIDTH 19 0
BBX 11 19 4 -1
BITMAP
C000
E000
6000
3000
3000
3800
1C00
0C00
0C00
0E00
0600
0600
0380
0380
01C0
01C0
00E0
0060
0060
ENDCHAR
STARTCHAR 093
ENCODING 93
SWIDTH 1368 0
DWIDTH 19 0
BBX 8 24 6 -6
BITMAP
FF
FF
FF
FF
07
07
07
E7
E7
E7
07
07
07
07
07
07
07
07
07
07
FF
FF
FF
FF
ENDCHAR
STARTCHAR 094
ENCODING 94
SWIDTH 1368 0
DWIDTH 19 0
BBX 16 12 1 6
BITMAP
0080
0080
01C0
01C0
03E0
07F0
0FF8
1FFC
3F7C
3E3E
7C1F
F80F
ENDCHAR
STARTCHAR 095
ENCODING 95
SWIDTH 1368 0
DWIDTH 19 0
BBX 19 4 0 -5
BITMAP
FFFFE0
FFFFE0
FFFFE0
FFFFE0
ENDCHAR
STARTCHAR 096
ENCODING 96
SWIDTH 1368 0
DWIDTH 19 0
BBX 5 8 9 9
BITMAP
60
F0
F0
F0
60
60
70
38
ENDCHAR
STARTCHAR 097
ENCODING 97
SWIDTH 1368 0
DWIDTH 19 0
BBX 13 13 4 -1
BITMAP
0020
1E60
3FC0
7FC0
F3C0
E1C0
E1C0
E1C0
E1C0
F3D8
7FF8
3EF0
1C60
ENDCHAR
STARTCHAR 098
ENCODING 98
SWIDTH 1368 0
DWIDTH 19 0
BBX 14 21 3 -2
BITMAP
0C00
1C00
1C00
3C00
FC00
1C00
1C00
1C00
1C00
1DE0
1FF0
1FF8
1E38
1E1C
1E1C
1C1C
1E3C
1FF8
1FF8
3FE0
E000
ENDCHAR
STARTCHAR 099
ENCODING 99
SWIDTH 1368 0
DWIDTH 19 0
BBX 11 13 5 -1
BITMAP
0F00
3FC0
7FE0
7860
F000
E000
E000
E000
E000
F060
7FE0
7FC0
3F80
ENDCHAR
STARTCHAR 100
ENCODING 100
SWIDTH 1368 0
DWIDTH 19 0
BBX 14 21 3 -1
BITMAP
0040
0060
0078
0070
0070
0070
0070
0070
0070
0E70
1FF0
3FF0
79F0
70F0
E070
E070
E070
E0F0
FFFC
7FBC
3F18
ENDCHAR
STARTCHAR 101
ENCODING 101
SWIDTH 1368 0
DWIDTH 19 0
BBX 12 13 4 -1
BITMAP
1FE0
3FE0
3C60
7860
70E0
7FC0
FF80
FE00
E000
7810
7FF0
3FE0
0FC0
ENDCHAR
STARTCHAR 102
ENCODING 102
SWIDTH 1368 0
DWIDTH 19 0
BBX 12 19 4 -1
BITMAP
03C0
07C0
07E0
0660
0600
0600
0600
0600
4610
4610
7FF0
FFE0
8620
8620
0600
0600
0600
0600
0F00
ENDCHAR
STARTCHAR 103
ENCODING 103
SWIDTH 1368 0
DWIDTH 19 0
BBX 12 19 4 -6
BITMAP
0700
1FF0
38E0
30E0
30E0
31C0
39C0
3FC0
1F80
0F00
0FE0
3D80
7980
F180
E300
C300
8600
CC00
7800
ENDCHAR
STARTCHAR 104
ENCODING 104
SWIDTH 1368 0
DWIDTH 19 0
BBX 14 19 4 -2
BITMAP
2000
6000
E000
6000
6000
6000
6000
6000
6000
6000
6700
6F80
7F80
7B80
6180
6184
61CC
61FC
F0F8
ENDCHAR
STARTCHAR 105
ENCODING 105
SWIDTH 1368 0
DWIDTH 19 0
BBX 6 16 7 -1
BITMAP
30
30
00
00
70
70
70
30
30
30
30
30
30
30
78
FC
ENDCHAR
STARTCHAR 106
ENCODING 106
SWIDTH 1368 0
DWIDTH 19 0
BBX 12 22 4 -6
BITMAP
0070
0070
0070
0000
0000
0020
0020
0060
0060
0060
0060
0060
0060
0060
0060
8060
C060
C0E0
E1C0
73C0
3F80
1E00
ENDCHAR
STARTCHAR 107
ENCODING 107
SWIDTH 1368 0
DWIDTH 19 0
BBX 14 18 4 -4
BITMAP
1000
3000
3000
3078
30F8
31D8
3398
3300
3C00
3C00
3E00
33C0
31E4
30F4
307C
703C
E000
C000
ENDCHAR
STARTCHAR 108
ENCODING 108
SWIDTH 1368 0
DWIDTH 19 0
BBX 11 20 4 -1
BITMAP
03C0
07E0
07E0
0E60
0C60
0860
08C0
1980
1B80
3700
3E00
3C00
3800
7800
F000
F0C0
3380
3700
3E00
1C00
ENDCHAR
STARTCHAR 109
ENCODING 109
SWIDTH 1368 0
DWIDTH 19 0
BBX 16 13 2 -1
BITMAP
0F3E
3F7E
7FFF
7BEF
F187
F187
F187
E107
E00F
C00E
C01E
C01C
C018
ENDCHAR
STARTCHAR 110
ENCODING 110
SWIDTH 1368 0
DWIDTH 19 0
BBX 16 13 2 -1
BITMAP
1800
7FC0
FFE0
DFE0
98E0
18E0
18E0
18E0
18E0
18F3
387F
783F
FC1E
ENDCHAR
STARTCHAR 111
ENCODING 111
SWIDTH 1368 0
DWIDTH 19 0
BBX 12 12 4 -1
BITMAP
0F80
3FE0
78E0
7070
E030
E030
E130
E130
7070
7FE0
3FE0
0F80
ENDCHAR
STARTCHAR 112
ENCODING 112
SWIDTH 1368 0
DWIDTH 19 0
BBX 11 16 5 -5
BITMAP
7F80
7FC0
7FE0
60E0
6060
6060
60E0
7FE0
7F80
6000
6000
6000
6000
6000
6000
C000
ENDCHAR
STARTCHAR 113
ENCODING 113
SWIDTH 1368 0
DWIDTH 19 0
BBX 14 18 3 -6
BITMAP
0020
1E60
3FE0
7FE0
F1E0
F0E0
E060
E060
E0E0
7FE0
3F60
1E60
0060
0060
0064
006C
0078
0078
ENDCHAR
STARTCHAR 114
ENCODING 114
SWIDTH 1368 0
DWIDTH 19 0
BBX 12 14 6 -2
BITMAP
3000
3000
3E00
3F80
7FF0
71E0
7000
7000
7000
F000
E000
E000
E000
C000
ENDCHAR
STARTCHAR 115
ENCODING 115
SWIDTH 1368 0
DWIDTH 19 0
BBX 10 14 5 -2
BITMAP
1F00
3F80
79C0
70C0
7040
3800
1C00
0E00
0700
0180
8180
C380
7F00
3E00
ENDCHAR
STARTCHAR 116
ENCODING 116
SWIDTH 1368 0
DWIDTH 19 0
BBX 12 17 3 -1
BITMAP
0600
0600
0600
0600
FE00
7FE0
07F0
07F0
0600
0600
0600
0600
0600
0610
07F0
07F0
07E0
ENDCHAR
STARTCHAR 117
ENCODING 117
SWIDTH 1368 0
DWIDTH 19 0
BBX 12 12 5 -1
BITMAP
E070
E070
E070
E070
E070
E070
E070
E070
70E0
7FE0
3FC0
1F80
ENDCHAR
STARTCHAR 118
ENCODING 118
SWIDTH 1368 0
DWIDTH 19 0
BBX 17 13 2 -1
BITMAP
FC0F80
780700
300600
380E00
180C00
1C1C00
0C1800
0E1800
063000
036000
01E000
01C000
00C000
ENDCHAR
STARTCHAR 119
ENCODING 119
SWIDTH 1368 0
DWIDTH 19 0
BBX 18 12 1 -1
BITMAP
F000C0
7001C0
3001C0
380180
180380
184300
1CE300
0DF700
0FBE00
079C00
071C00
020800
ENDCHAR
STARTCHAR 120
ENCODING 120
SWIDTH 1368 0
DWIDTH 19 0
BBX 13 13 3 -1
BITMAP
E038
7070
38E0
1DC0
0F80
0700
0700
0700
0700
1DC0
38E0
7070
E038
ENDCHAR
STARTCHAR 121
ENCODING 121
SWIDTH 1368 0
DWIDTH 19 0
BBX 14 17 3 -6
BITMAP
E01C
7038
7038
3838
3870
1C70
0C60
0EE0
07C0
0380
0380
0300
0300
0600
4E00
7C00
7800
ENDCHAR
STARTCHAR 122
ENCODING 122
SWIDTH 1368 0
DWIDTH 19 0
BBX 13 13 3 -1
BITMAP
FFF8
FFF8
0078
00F0
01E0
03C0
0380
0700
0E00
3C00
7FF8
FFF8
FFF8
ENDCHAR
STARTCHAR 123
ENCODING 123
SWIDTH 1368 0
DWIDTH 19 0
BBX 8 23 6 -5
BITMAP
0F
0F
08
08
08
08
08
08
08
18
30
E0
70
18
08
08
08
08
08
08
08
0F
0F
ENDCHAR
STARTCHAR 124
ENCODING 124
SWIDTH 1368 0
DWIDTH 19 0
BBX 1 23 10 -5
BITMAP
80
80
80
80
80
80
80
80
80
80
80
80
80
80
80
80
80
80
80
80
80
80
80
ENDCHAR
STARTCHAR 125
ENCODING 125
SWIDTH 1368 0
DWIDTH 19 0
BBX 11 24 4 -6
BITMAP
F800
FC00
1C00
0C00
0600
0600
0200
0200
0200
0300
0380
01E0
0380
0300
0200
0200
0200
0200
0200
0600
0C00
0C00
3C00
F800
ENDCHAR
STARTCHAR 126
ENCODING 126
SWIDTH 1368 0
DWIDTH 19 0
BBX 15 11 3 0
BITMAP
1E0E
3F1E
7F9E
F1FC
E0F0
0000
0E00
3F0E
FFFC
E1F8
C0F0
ENDCHAR
STARTCHAR 127
ENCODING 127
SWIDTH 1368 0
DWIDTH 19 0
BBX 19 28 0 -6
BITMAP
FFFFE0
FFFFE0
FFFFE0
FFFFE0
FFFFE0
FFFFE0
FFFFE0
FFFFE0
FFFFE0
FFFFE0
FFFFE0
FFFFE0
FFFFE0
FFFFE0
FFFFE0
FFFFE0
FFFFE0
FFFFE0
FFFFE0
FFFFE0
FFFFE0
FFFFE0
FFFFE0
FFFFE0
FFFFE0
FFFFE0
FFFFE0
FFFFE0
ENDCHAR
STARTCHAR 128
ENCODING 128
SWIDTH 1368 0
DWIDTH 19 0
BBX 19 26 0 -6
BITMAP
FFFFE0
FFFFE0
FC07E0
F001E0
E000E0
C3FE60
C00060
80F020
84F400
240480
24F480
240480
A4A480
A4A480
24A400
24A400
24A580
24A400
24A400
24A480
24A480
24A480
A4A480
A4A480
24A480
24A480
ENDCHAR
STARTCHAR 129
ENCODING 129
SWIDTH 1368 0
DWIDTH 19 0
BBX 7 25 1 -6
BITMAP
F0
F0
F0
B0
B0
F0
F0
F0
F0
F0
F0
F0
FE
FE
FE
F0
F0
F0
F0
F0
F0
B0
B0
F0
F0
ENDCHAR
STARTCHAR 130
ENCODING 130
SWIDTH 1368 0
DWIDTH 19 0
BBX 17 20 2 -2
BITMAP
FE3F80
FC1F80
F80F80
F00780
F00780
F00780
F00780
F00780
F00780
F00780
F00780
F00780
F00780
F00780
F00780
7C1F00
7FFF00
3FFE00
1FFC00
07F000
ENDCHAR
STARTCHAR 131
ENCODING 131
SWIDTH 1368 0
DWIDTH 19 0
BBX 17 25 2 -5
BITMAP
01C000
03E000
02A000
03E000
02A000
036000
01C000
008000
07F000
0FF800
1FFC00
3FFE00
7BEF00
F3E780
C3E180
01C000
03E000
07F000
008000
008000
008000
008000
008000
008000
008000
ENDCHAR
STARTCHAR 132
ENCODING 132
SWIDTH 1368 0
DWIDTH 19 0
BBX 13 15 4 0
BITMAP
0200
0200
0A80
0A80
2AA0
2AA0
AAA8
AAA8
AAA8
2AA0
2AA0
0A80
0A80
0200
0200
ENDCHAR
STARTCHAR 133
ENCODING 133
SWIDTH 1368 0
DWIDTH 19 0
BBX 16 24 2 -6
BITMAP
01A0
0A52
15E8
6F74
6B7C
1FF3
F99C
3FFC
DFF3
CF9F
3F9C
39F3
F9FF
1FFC
9FF1
676E
37EC
2FF4
15A8
0180
0180
0180
0180
0180
ENDCHAR
STARTCHAR 134
ENCODING 134
SWIDTH 1368 0
DWIDTH 19 0
BBX 16 19 2 -6
BITMAP
0400
0150
0AA2
0400
3698
09E4
69E4
6F7C
3F7D
07FA
C99C
3F9B
3FFB
CEFC
D6E2
2BD4
09A8
0180
0180
ENDCHAR
STARTCHAR 135
ENCODING 135
SWIDTH 1368 0
DWIDTH 19 0
BBX 16 24 2 -6
BITMAP
0180
18B8
0EE0
23E4
339F
1999
C4E0
4682
39EE
4738
8F00
0CE6
18FC
F198
070C
79E0
09FC
0980
1100
0100
0180
0180
0180
0180
ENDCHAR
STARTCHAR 136
ENCODING 136
SWIDTH 1368 0
DWIDTH 19 0
BBX 19 28 0 -6
BITMAP
062060
062040
1843C0
D84380
D99C00
799C00
39A300
0640C0
0640C0
F65C20
09A300
09A300
09A300
C644C0
C644E0
392020
392000
C718E0
085B80
31A400
31A400
C624E0
C624E0
085B00
09DB00
09DB80
3324A0
3224E0
ENDCHAR
STARTCHAR 137
ENCODING 137
SWIDTH 1368 0
DWIDTH 19 0
BBX 18 28 1 -6
BITMAP
800000
808000
400000
810000
210100
820000
948200
828000
020400
806800
840000
402400
840000
A04200
080180
850240
904400
912800
021000
242C00
804000
480240
910180
420600
A43100
510100
AA0080
500000
ENDCHAR
STARTCHAR 138
ENCODING 138
SWIDTH 1368 0
DWIDTH 19 0
BBX 19 5 0 6
BITMAP
211080
211080
73B9C0
FFFFE0
CE6720
ENDCHAR
STARTCHAR 139
ENCODING 139
SWIDTH 1368 0
DWIDTH 19 0
BBX 18 27 1 -6
BITMAP
041000
000000
200100
000000
000000
809040
040000
000000
112200
000000
4F3C00
1FF600
3BFF40
2FDD00
71E380
60C180
408080
004000
808000
004000
0FBE00
304180
6080C0
4000C0
6001C0
7FFFC0
3FFF80
ENDCHAR
STARTCHAR 140
ENCODING 140
SWIDTH 1368 0
DWIDTH 19 0
BBX 19 18 0 -6
BITMAP
000F80
001D80
01F880
03F0C0
1BFFC0
3E3F40
7F3940
57F1E0
6460E0
CE3FC0
C7BF20
CFFEA0
D0C480
6679C0
6F0540
DF8140
DFC540
0FB9C0
ENDCHAR
STARTCHAR 141
ENCODING 141
SWIDTH 1368 0
DWIDTH 19 0
BBX 18 27 1 -6
BITMAP
0AC000
0A4000
174000
174000
1FC040
0FC040
0B40C0
0FC180
0F8180
150380
170300
120700
3FAE00
3FAC00
7FD800
7FFF00
FF9800
FFA000
FFF000
FFA000
FFE000
FFE000
FFE000
FFE000
FFE000
FFE000
FFE000
ENDCHAR
STARTCHAR 142
ENCODING 142
SWIDTH 1368 0
DWIDTH 19 0
BBX 19 22 0 -5
BITMAP
007000
01FC00
07FF00
1FFFC0
3FFF80
E3FE60
F9FCE0
FC73E0
FF07E0
FFDFE0
FFDFE0
FFDFE0
FFDFE0
FFDFE0
FFDFE0
FFDFE0
7FDFE0
3FDFC0
0FDF80
07DE00
01DC00
00F000
ENDCHAR
STARTCHAR 143
ENCODING 143
SWIDTH 1368 0
DWIDTH 19 0
BBX 19 28 0 -6
BITMAP
800000
400020
400020
200040
100080
100080
080100
040200
040200
020400
010800
009000
006000
006000
000000
002000
006000
009000
008800
020400
020200
040200
080100
080080
100080
200040
200020
400020
ENDCHAR
STARTCHAR 144
ENCODING 144
SWIDTH 1368 0
DWIDTH 19 0
BBX 19 28 0 -6
BITMAP
800000
400020
400020
200040
100080
100080
080100
040200
040200
020400
010800
009000
006000
006000
000000
002000
006000
009000
008800
020400
020200
040200
080100
080080
100080
200040
200020
400020
ENDCHAR
STARTCHAR 145
ENCODING 145
SWIDTH 1368 0
DWIDTH 19 0
BBX 19 28 0 -6
BITMAP
BEFBA0
F7EFE0
FDFBE0
5FFE60
FFB660
F3FFE0
B3FDA0
FF6FE0
7FFFE0
FFFDA0
7FF7E0
FF3EE0
FB3FC0
7FDFE0
EFF5E0
FEFFE0
FFFF60
DFF3E0
7F73E0
FFDF60
6F7DE0
FFFFE0
FFDB60
D9FFE0
79BCE0
FFDCA0
FFFFE0
DEF7E0
ENDCHAR
STARTCHAR 146
ENCODING 146
SWIDTH 1368 0
DWIDTH 19 0
BBX 19 28 0 -6
BITMAP
FFFFE0
7EFBE0
7EFBE0
3C71E0
3C71E0
810400
C38E00
FFFFE0
FFFFE0
7EFBE0
3C71E0
3C71E0
810400
C38E00
FFFFE0
FFFFE0
7EFBE0
7EFBE0
3C71E0
810400
C38E00
FFFFE0
FFFFE0
7EFBE0
7EFBE0
3C71C0
BD75C0
C38E20
ENDCHAR
STARTCHAR 147
ENCODING 147
SWIDTH 1368 0
DWIDTH 19 0
BBX 15 20 3 -4
BITMAP
0100
0100
0380
0780
0BC0
0B60
14B0
2490
2848
7FFC
FFFC
A5B6
F74A
2D28
1750
0BA0
0540
0380
0100
0100
ENDCHAR
STARTCHAR 148
ENCODING 148
SWIDTH 1368 0
DWIDTH 19 0
BBX 19 27 0 -6
BITMAP
3ECDC0
7F9FE0
5F4FE0
6F9FE0
1F16A0
000000
000000
7C3FC0
FE7FE0
FE7DE0
FF5F60
3E3FC0
000000
000000
67DF40
FFDFE0
FF9FC0
FFCFC0
BE4CA0
000000
000000
3F3FA0
7E3FE0
7F9FC0
3FBFE0
7F9FC0
2B32A0
ENDCHAR
STARTCHAR 149
ENCODING 149
SWIDTH 1368 0
DWIDTH 19 0
BBX 19 28 0 -6
BITMAP
FEFDE0
7EFBE0
8FF760
AF0F60
FED8A0
75FDC0
71FBE0
0DFB60
7618E0
F6EBE0
AB67C0
5FB860
FCDF80
FDDDA0
0F9DC0
F3BD80
FB7BE0
72ABE0
8DF560
F7E620
7F3DC0
867BC0
757F80
73B360
FF2AE0
AFD9C0
D6FAC0
F2FF20
ENDCHAR
STARTCHAR 150
ENCODING 150
SWIDTH 1368 0
DWIDTH 19 0
BBX 19 27 0 -6
BITMAP
3ECDC0
659B60
594FE0
6F99C0
1F16A0
000000
000000
7C3FC0
FE5EA0
DA6CA0
EB5F60
3E3FC0
000000
000000
67DF40
DF5DE0
ED92C0
DE4D80
BE4CA0
000000
000000
3F3FA0
5E3760
6D9CC0
1EB760
6D9F40
5B32A0
ENDCHAR
STARTCHAR 151
ENCODING 151
SWIDTH 1368 0
DWIDTH 19 0
BBX 18 14 1 1
BITMAP
000080
000100
1E02C0
6FCB00
FFEEC0
BFFD80
F1FB00
E07E40
CE7C80
9F3B00
318040
6081C0
807F00
007800
ENDCHAR
STARTCHAR 152
ENCODING 152
SWIDTH 1368 0
DWIDTH 19 0
BBX 19 20 0 -4
BITMAP
000060
000060
0001E0
0001E0
0007E0
000F80
001F80
003E00
003E00
00F800
00F800
33E000
33E000
0FC000
0F0000
0F0000
30C000
30C000
C00000
C00000
ENDCHAR
STARTCHAR 153
ENCODING 153
SWIDTH 1368 0
DWIDTH 19 0
BBX 16 27 1 -6
BITMAP
E000
F000
7C00
3C00
3F00
1FC0
1FF0
1FF8
1FFC
1E3E
1E0E
1E0E
1E3C
1FFC
1FF8
1FFE
1E07
1E03
1E07
1E0F
07FE
1BFC
1BF8
1DC0
3F00
7E00
FC00
ENDCHAR
STARTCHAR 154
ENCODING 154
SWIDTH 1368 0
DWIDTH 19 0
BBX 17 21 1 -3
BITMAP
000100
000300
03FF00
0FFF00
1FFD00
3FFF00
7F3700
7F1B00
F80D00
FC0000
FE0000
F00000
F00000
F00000
F00000
FF6780
7FEF80
7FDE00
3FF800
3FF800
0FF000
ENDCHAR
STARTCHAR 155
ENCODING 155
SWIDTH 1368 0
DWIDTH 19 0
BBX 19 22 0 -6
BITMAP
0FF800
0FFE00
0FFF00
0FFF80
0F87C0
0F83E0
0F83E0
1F81E0
3F81E0
7D81E0
F981E0
7D81E0
3F81E0
0F81E0
0F81E0
0F83E0
0F87C0
0F8FC0
0FFF80
0FFF00
0FFE00
0FF800
ENDCHAR
STARTCHAR 156
ENCODING 156
SWIDTH 1368 0
DWIDTH 19 0
BBX 19 22 0 -6
BITMAP
FFFE00
7FFF80
39FFC0
1D8FC0
0F83E0
0F81E0
0F81E0
0F81E0
0F81E0
0F81E0
0F81E0
0F81E0
0F81E0
0F81E0
0F81E0
0F81E0
0F83E0
0D87E0
198FC0
3FFFC0
7FFF80
FFFE00
ENDCHAR
STARTCHAR 157
ENCODING 157
SWIDTH 1368 0
DWIDTH 19 0
BBX 19 28 0 -6
BITMAP
800000
400020
400020
200040
100080
100080
080100
040200
040200
020400
010800
009000
006000
006000
000000
002000
006000
009000
008800
020400
020200
040200
080100
080080
100080
200040
200020
400020
ENDCHAR
STARTCHAR 158
ENCODING 158
SWIDTH 1368 0
DWIDTH 19 0
BBX 13 27 3 -5
BITMAP
0300
0300
0300
0600
0600
0600
0C00
0C00
1800
1818
7FF0
7FF0
C060
8060
00C0
00C0
01C0
0180
0180
0300
1300
1600
1E00
1F80
1F00
1C00
1800
ENDCHAR
STARTCHAR 159
ENCODING 159
SWIDTH 1368 0
DWIDTH 19 0
BBX 19 23 0 -3
BITMAP
003000
606000
70C080
39C080
19C080
198180
1BBF00
1B3F00
CB59C0
EB9980
73B320
3BB320
19FB60
0DDB20
35D980
18F9C0
DCF9C0
37E460
16C360
094F60
0F5CE0
0F5BC0
001DC0
ENDCHAR
STARTCHAR 160
ENCODING 160
SWIDTH 1368 0
DWIDTH 19 0
BBX 18 23 1 -3
BITMAP
01F000
01F000
01D000
01F000
E1F0C0
E1F0C0
E1F0C0
000000
7BF7C0
7BF7C0
7BF7C0
03F000
03F000
03F000
03F000
000000
0E0700
0E0700
000000
0007C0
3E07C0
3E07C0
3E07C0
ENDCHAR
STARTCHAR 161
ENCODING 161
SWIDTH 1368 0
DWIDTH 19 0
BBX 19 24 0 -4
BITMAP
406020
216840
3148C0
18B180
0CF300
0E9600
069500
376D80
7BFBC0
F369E0
C368E0
C368E0
E308C0
E1F8C0
E4F5C0
0861C0
271C00
1F1E00
1E0F00
120900
160D00
3E0F80
3E0F80
6A0AC0
ENDCHAR
STARTCHAR 162
ENCODING 162
SWIDTH 1368 0
DWIDTH 19 0
BBX 19 28 0 -6
BITMAP
007C00
08EDC0
1D95C0
1F6FE0
3DF8E0
7800E0
F030E0
F079E0
FC6BE0
FE7BE0
7F37C0
3FCFC0
0FFF80
03FF00
03FF00
03FF00
03FF00
0FFF00
1FFF80
7FFFE0
7F07E0
3C07E0
3C01E0
1E03C0
0E0380
0E0F00
1C0F00
380FC0
ENDCHAR
STARTCHAR 163
ENCODING 163
SWIDTH 1368 0
DWIDTH 19 0
BBX 18 27 1 -6
BITMAP
001C00
001E40
000E40
000740
000740
0003C0
0003C0
0003C0
0001C0
0003C0
0003C0
0007C0
3C07C0
7E1FC0
7F1FC0
FFFFC0
FFFFC0
DFFFC0
FFFF80
FFFF80
FCFF00
F5FE00
CBFE00
D5FC00
2BF000
37C000
1F8000
ENDCHAR
STARTCHAR 164
ENCODING 164
SWIDTH 1368 0
DWIDTH 19 0
BBX 19 26 0 -5
BITMAP
3B8000
7FC000
7FC000
E68000
C7C000
034000
038000
1DB000
246000
6FEC00
67CE60
C487E0
C3C300
F1C000
7E8000
06C000
09E000
1FE000
3FF000
3FF800
7FF800
FFF800
E1FC00
103C00
380000
701C00
ENDCHAR
STARTCHAR 165
ENCODING 165
SWIDTH 1368 0
DWIDTH 19 0
BBX 19 25 0 -4
BITMAP
00E000
011000
00E000
000000
006000
18E300
3CF380
3C97C0
7EF7C0
7D9BE0
FCF3E0
FAF5E0
FAF5E0
F76EE0
F76EE0
F70EE0
E6F6E0
EFF6E0
6DFBE0
63F860
47F820
41BC20
019800
039C00
079E00
ENDCHAR
STARTCHAR 166
ENCODING 166
SWIDTH 1368 0
DWIDTH 19 0
BBX 19 27 0 -6
BITMAP
0003E0
0037C0
006FC0
00DF80
01DFC0
03DFE0
03FFE0
03FFC0
03BFC0
037D80
0673E0
06FFE0
06B780
00EC00
3DFF00
57FF80
F9D600
ABE000
0FF000
07F800
03FE00
01FF80
06FFE0
087FA0
147FC0
159E80
114100
ENDCHAR
STARTCHAR 167
ENCODING 167
SWIDTH 1368 0
DWIDTH 19 0
BBX 19 19 0 -3
BITMAP
C60000
7E0000
FE0000
D60000
7F0060
7FC0E0
47FC20
57FF20
7FFFA0
7FFFE0
3FFFC0
3FFF80
1FFFC0
1DC7E0
18C7E0
18C660
18C660
18CCE0
39C000
ENDCHAR
STARTCHAR 168
ENCODING 168
SWIDTH 1368 0
DWIDTH 19 0
BBX 19 26 0 -6
BITMAP
00C000
03A000
07F380
0072C0
71F7C0
D06780
F06F40
B0EF00
3CFEE0
7EFCA0
DFFCE0
1FF9C0
0FFBE0
0FF3E0
07E780
07FF80
03FF00
00FC00
00FC00
007E00
003E00
0F3E00
1FFEE0
3FFFE0
3FFFE0
1EF3E0
ENDCHAR
STARTCHAR 169
ENCODING 169
SWIDTH 1368 0
DWIDTH 19 0
BBX 19 25 0 -5
BITMAP
080100
3801C0
3204C0
B204C0
B204C0
B30CC0
B39CC0
B9F9C0
7D69E0
9BFF80
EB6F60
F492E0
FD69E0
F9FBE0
C3FE20
31F8C0
EC6360
19FB80
1DFB80
1BFF80
09FB00
08F300
1C0380
330EC0
209240
ENDCHAR
STARTCHAR 170
ENCODING 170
SWIDTH 1368 0
DWIDTH 19 0
BBX 19 28 0 -6
BITMAP
403000
A04820
509440
AA84A0
55ED40
0AFE80
00FD00
017A00
00B400
016800
016A00
029400
056B00
320460
1850C0
0CF980
07FF00
13FE40
1EFBC0
272740
13FE80
29FD40
11FC80
28F940
107080
00F800
00A800
00F800
ENDCHAR
STARTCHAR 171
ENCODING 171
SWIDTH 1368 0
DWIDTH 19 0
BBX 19 20 0 -2
BITMAP
380080
080080
040100
840200
840200
43FC00
433E60
3E0F80
060600
0C4300
0CC300
7C4700
4C0700
8E0E00
8E1F80
05FC60
080200
080200
300100
400080
ENDCHAR
STARTCHAR 172
ENCODING 172
SWIDTH 1368 0
DWIDTH 19 0
BBX 16 25 2 -6
BITMAP
00FE
0303
06F9
0D07
0A15
0CE3
031F
00FF
013F
01FE
04FC
03FC
00FC
02F8
05F0
00E0
09C0
0780
0F00
2700
1C00
1800
3000
4000
8000
ENDCHAR
STARTCHAR 173
ENCODING 173
SWIDTH 1368 0
DWIDTH 19 0
BBX 19 17 0 -5
BITMAP
0000C0
0000E0
100060
110020
3B0020
7F0020
6F0020
7F9F20
7FFFE0
7FFFE0
7FFFE0
3FFFE0
7FDFE0
FBC760
C70F60
8E1E60
1C00C0
ENDCHAR
STARTCHAR 174
ENCODING 174
SWIDTH 1368 0
DWIDTH 19 0
BBX 19 24 0 -6
BITMAP
000700
001880
002040
004000
004DA0
00CDA0
070000
0E0620
190600
260660
560020
3D0060
A500E0
4600A0
080140
1D0B80
200CC0
2A9880
DB5140
36E880
44B100
4E6000
180000
284000
ENDCHAR
STARTCHAR 175
ENCODING 175
SWIDTH 1368 0
DWIDTH 19 0
BBX 19 22 0 -6
BITMAP
007800
00FC00
01FC20
03D420
007C20
006420
03FC20
07C820
0FC820
1FDA20
1FD3A0
3FC760
3FE3A0
7FE220
7FF960
FFD880
FFCC60
FFF660
FF8600
FC0600
000000
0E0380
ENDCHAR
STARTCHAR 176
ENCODING 176
SWIDTH 1368 0
DWIDTH 19 0
BBX 9 22 6 -5
BITMAP
3000
7800
7800
2800
7800
3E00
1F00
1F00
1F80
1D80
1C80
3C80
2C80
4C80
8C80
1480
1480
1400
1400
1400
1400
1400
ENDCHAR
STARTCHAR 177
ENCODING 177
SWIDTH 1368 0
DWIDTH 19 0
BBX 18 27 1 -5
BITMAP
000040
0002C0
0003C0
0003C0
0003C0
00C3C0
012300
012300
00C100
012100
0B3580
35EB80
6BF580
E5CFC0
FAD7C0
ED2FC0
EAD180
ED2800
E2D000
F2D000
77F800
77F800
07F800
073800
0F3C00
1F3E00
1F3E00
ENDCHAR
STARTCHAR 178
ENCODING 178
SWIDTH 1368 0
DWIDTH 19 0
BBX 17 25 2 -5
BITMAP
000080
098080
070100
078300
030200
038400
06CC00
0D8800
0FB000
09A000
094000
0D2000
0C1000
064000
0FC000
0FC000
1FC000
1CC000
186000
386000
386000
306000
306000
707000
E07800
ENDCHAR
STARTCHAR 179
ENCODING 179
SWIDTH 1368 0
DWIDTH 19 0
BBX 19 27 0 -5
BITMAP
080040
080040
0C00C0
070380
037700
00F800
00AC00
00AC00
06F980
037B00
7C81E0
7C01E0
F90260
E18660
E1FE60
7000C0
7000C0
7000C0
000000
078780
0F87C0
0F03C0
0E01C0
000000
1C00E0
300020
700020
ENDCHAR
STARTCHAR 180
ENCODING 180
SWIDTH 1368 0
DWIDTH 19 0
BBX 18 26 1 -6
BITMAP
003000
003000
000080
000100
000000
0003C0
0187C0
03CFC0
7FFCC0
7FFFC0
3FE7C0
3FC7C0
3F8F80
779F00
E73F00
E67F80
E07F80
7FFC00
3FFC00
3FFC00
7F7C00
7F1C40
3E0000
1C0000
000C00
800000
ENDCHAR
STARTCHAR 181
ENCODING 181
SWIDTH 1368 0
DWIDTH 19 0
BBX 19 17 0 0
BITMAP
07C000
3FE000
7FFE20
7DFFE0
FDFFC0
780000
7E07C0
3FFFE0
1FFFE0
1FFFE0
07C0E0
000060
0000E0
3FFFE0
6FFFE0
FFFFC0
FC0000
ENDCHAR
STARTCHAR 182
ENCODING 182
SWIDTH 1368 0
DWIDTH 19 0
BBX 19 24 0 -4
BITMAP
700000
704900
504900
A87F00
704100
205500
204900
202200
20F560
235B60
226760
285900
6C2300
685C00
207F00
20FF80
2198C0
21C180
200040
2180C0
200040
2180C0
2380E0
2700E0
ENDCHAR
STARTCHAR 183
ENCODING 183
SWIDTH 1368 0
DWIDTH 19 0
BBX 19 28 0 -6
BITMAP
008800
489040
249180
13E600
0FF800
C7F380
3C9C40
07F800
0FE400
16C300
293800
0BFA00
1BFB00
5DE3A0
3101E0
3AE0E0
F36040
230000
013000
07F800
0FFC00
0FFC00
0FFE00
1FFE00
3FFE00
387F00
041F00
0E0000
ENDCHAR
STARTCHAR 184
ENCODING 184
SWIDTH 1368 0
DWIDTH 19 0
BBX 16 18 2 -1
BITMAP
8001
4386
746E
746E
3B98
4FF6
B7E9
B7E9
4E76
4E76
B7E9
B7E9
4FF6
3D78
76EE
756E
4386
8001
ENDCHAR
STARTCHAR 185
ENCODING 185
SWIDTH 1368 0
DWIDTH 19 0
BBX 19 27 0 -6
BITMAP
008800
018C00
008800
C07000
C0F800
207000
107000
0ED9C0
1C8AA0
3B06C0
3BFDA0
7DFB60
79F620
F06C20
C19860
FAB660
FCAF60
7E4980
079740
0B8780
080780
080380
0E0380
080080
0E0380
1E03C0
3C01E0
ENDCHAR
STARTCHAR 186
ENCODING 186
SWIDTH 1368 0
DWIDTH 19 0
BBX 19 26 0 -5
BITMAP
000040
0000A0
0000A0
0000A0
00E0A0
01F040
0190C0
017080
011EC0
01A540
1AC4C0
2448C0
220840
420E40
4739C0
BCF840
80C440
870440
480140
500140
300140
31F1C0
FE13C0
F3FFC0
7FFE40
1F3C00
ENDCHAR
STARTCHAR 187
ENCODING 187
SWIDTH 1368 0
DWIDTH 19 0
BBX 18 24 0 -5
BITMAP
001000
003800
003800
007C00
00DC00
01C600
03FF00
83FF80
47FFC0
27FFC0
37FCC0
1EFCC0
1E7F80
0CFF00
01FE00
01FF00
01FF00
01FF00
03FF00
03FF80
03FF80
030180
0701C0
0600C0
ENDCHAR
STARTCHAR 188
ENCODING 188
SWIDTH 1368 0
DWIDTH 19 0
BBX 19 25 0 -6
BITMAP
C0C000
C1E000
216000
15E000
06E000
16C000
1B0FC0
3BDFE0
739FE0
631FE0
605FE0
315BE0
3353E0
26E9E0
1669E0
15B7C0
0AB380
10CC00
1C1300
180C80
380C00
380200
401E00
780F00
F00780
ENDCHAR
STARTCHAR 189
ENCODING 189
SWIDTH 1368 0
DWIDTH 19 0
BBX 19 28 0 -6
BITMAP
103100
103100
197CC0
197CC0
6FEFC0
6FEFC0
7FCEC0
7FCEC0
7E03C0
7E03C0
7801C0
EF0E40
EF0E40
7F8F20
7F8F20
1F0D20
1F0D20
0E0F20
0E0F20
1E4140
08E240
08E200
17AE80
17AE00
111000
111000
6110C0
6110C0
ENDCHAR
STARTCHAR 190
ENCODING 190
SWIDTH 1368 0
DWIDTH 19 0
BBX 19 28 0 -6
BITMAP
007F00
007F00
004900
007F00
1DFF00
3DFF00
3C1F00
3C9FC0
7026C0
F195E0
F1E9E0
C400E0
C2E0E0
A2B8E0
705860
F53860
725860
099E40
041E20
194600
3CE780
3D9780
FD77E0
FCA7E0
FC47E0
FC07E0
3C0000
3C0000
ENDCHAR
STARTCHAR 191
ENCODING 191
SWIDTH 1368 0
DWIDTH 19 0
BBX 19 26 0 -5
BITMAP
000020
000060
0003E0
000360
001FE0
001FE0
0007C0
000FC0
03FFE0
1FFE00
7FFC00
7FFC00
FFFE00
FFFF00
FFFF00
FFFF80
FFFF80
FFF7C0
EFF2A0
E6B800
E63800
E63C00
E79400
F30000
710000
300000
ENDCHAR
STARTCHAR 192
ENCODING 192
SWIDTH 1368 0
DWIDTH 19 0
BBX 19 23 0 -3
BITMAP
007C00
003A00
00FF00
C07F80
70FB80
70FB80
38F800
387860
387F80
18FF00
19FFE0
1BFC20
0FF800
07F000
01F000
01F000
03F000
072000
072000
033000
019800
00CC00
004000
ENDCHAR
STARTCHAR 193
ENCODING 193
SWIDTH 1368 0
DWIDTH 19 0
BBX 19 22 0 -5
BITMAP
03FF80
03FF80
3FFFE0
3FC3E0
FE3C60
FBFF20
F3FF20
FF0760
F70760
FF0720
EF27A0
EF3720
EF1F60
E7F760
3BFCE0
3C3CE0
3FECE0
3FFE60
07FFC0
03FEE0
000060
000020
ENDCHAR
STARTCHAR 194
ENCODING 194
SWIDTH 1368 0
DWIDTH 19 0
BBX 18 14 0 -6
BITMAP
083C00
1C7F00
77FF80
FFFF80
3FFFC0
07FFC0
01FFC0
00BFC0
011EC0
000840
001040
000040
000040
000040
ENDCHAR
STARTCHAR 195
ENCODING 195
SWIDTH 1368 0
DWIDTH 19 0
BBX 18 28 1 -6
BITMAP
038000
07CC00
1FE600
3CF300
7DF380
FFF380
D7F1C0
AFF9C0
5FF8C0
BFFCC0
FDFCC0
F3FCC0
03FCC0
07FCC0
0FFCC0
4DFDC0
3DFFC0
49FFC0
21FF80
01FF80
03DF00
03DE00
03CE00
03CE00
03CC00
038C00
018C00
018800
ENDCHAR
STARTCHAR 196
ENCODING 196
SWIDTH 1368 0
DWIDTH 19 0
BBX 16 27 2 -6
BITMAP
0E00
7F00
FB80
FFC0
9FC0
5FE0
FFE0
07F0
1FF2
7FF3
67F3
4FF3
1FF7
1FF7
17FE
07FE
07FC
07FC
0FF8
1FF8
1FF0
1FF0
1E70
0C70
0C30
1C30
3C70
ENDCHAR
STARTCHAR 197
ENCODING 197
SWIDTH 1368 0
DWIDTH 19 0
BBX 19 27 0 -6
BITMAP
009000
00F000
00F000
486100
50F0A0
2402A0
E89140
3060A0
AE00C0
200060
1F08A0
00F280
010980
00F080
000000
00F000
000000
009000
00F000
009000
009000
019800
009000
009000
009000
019800
010C00
ENDCHAR
STARTCHAR 198
ENCODING 198
SWIDTH 1368 0
DWIDTH 19 0
BBX 19 27 0 -6
BITMAP
018000
01C000
00E000
3C7000
7E3000
6F1000
439000
00D7C0
7CFFE0
F7FFE0
C1EFE0
80FBE0
0FEFC0
1F7A00
39EFE0
71BFE0
70D6E0
E0FB20
C0D980
C0C980
00CD80
00CC80
00CCC0
00CCC0
00CCC0
00CCC0
008CC0
ENDCHAR
STARTCHAR 199
ENCODING 199
SWIDTH 1368 0
DWIDTH 19 0
BBX 19 24 0 -4
BITMAP
003000
00B400
00A400
005800
0E79C0
074B00
034AC0
1BB6C0
7DFDE0
F9FCE0
E1FC60
E1FC60
710460
70F860
7272E0
0420E0
138E00
0F8F00
0F0780
090480
0B0680
1F07C0
1F07C0
350560
ENDCHAR
STARTCHAR 200
ENCODING 200
SWIDTH 1368 0
DWIDTH 19 0
BBX 16 17 2 -5
BITMAP
3FF0
7BD8
F99C
DC3C
DE7E
CC3E
E5BF
E00F
F5A7
FC3F
FC1F
FC1F
781F
781E
318E
3FFC
0FF8
ENDCHAR
STARTCHAR 201
ENCODING 201
SWIDTH 1368 0
DWIDTH 19 0
BBX 19 26 0 -6
BITMAP
100080
3000C0
3891C0
459A20
439C20
83FC20
C99920
DC6220
9561E0
9282C0
A54360
AE8360
ED63A0
E891A0
206FA0
197000
088400
030600
03C700
038100
030580
028E80
050500
028A00
01CC00
00CC00
ENDCHAR
STARTCHAR 202
ENCODING 202
SWIDTH 1368 0
DWIDTH 19 0
BBX 19 25 0 -5
BITMAP
001C00
006E00
003E00
002A00
003E00
003FE0
E07FA0
3E3F80
066AE0
06FE60
06F000
07F800
07FC00
03FC00
03DE00
01FE00
01E300
0039C0
0030E0
002000
002000
004000
00C000
00C000
00C000
ENDCHAR
STARTCHAR 203
ENCODING 203
SWIDTH 1368 0
DWIDTH 19 0
BBX 18 27 1 -6
BITMAP
00C000
012000
029000
05C800
140A00
2D4D00
508280
280500
11E200
112200
292400
500200
540A00
0C0E00
204200
104200
108200
11A200
180600
100200
100200
300300
312300
733180
FE1FC0
F003C0
073800
ENDCHAR
STARTCHAR 204
ENCODING 204
SWIDTH 1368 0
DWIDTH 19 0
BBX 19 26 0 -6
BITMAP
003E00
007E00
00FE00
01FE00
039E00
030E00
030E00
030600
1FFF80
3FFFC0
7FFFE0
78FE60
F0FE60
E1FE20
C1FE20
C1FE00
83FE00
03FF00
07FF80
07FF80
0FFF80
0FFF80
1FFF80
3FFF80
00FF80
003F80
ENDCHAR
STARTCHAR 205
ENCODING 205
SWIDTH 1368 0
DWIDTH 19 0
BBX 18 28 1 -6
BITMAP
000080
0540C0
054180
07C0C0
000180
07C0C0
054180
07C0C0
0AC180
1BE0C0
3C58C0
3ED980
7FFCC0
7FFD80
7FFEC0
FFAEC0
FFE780
FF6700
F6E480
A9F180
D6F000
EFF000
FFF000
FFF000
FFF000
387000
3C7C00
3E7C00
ENDCHAR
STARTCHAR 206
ENCODING 206
SWIDTH 1368 0
DWIDTH 19 0
BBX 19 28 0 -6
BITMAP
07C000
09A700
0BBFE0
0FFFE0
0C2FA0
1FF760
183AE0
0AFDE0
0EFDE0
0C7DE0
0E3DE0
0E3DE0
0C3DC0
0F3FE0
073FC0
0F3FE0
0F3AE0
1EBCC0
3D3AE0
F06860
F8F460
F4F020
ECC020
94E020
A8C020
50C020
01E060
01C060
ENDCHAR
STARTCHAR 207
ENCODING 207
SWIDTH 1368 0
DWIDTH 19 0
BBX 19 18 0 1
BITMAP
180000
1F8000
1FC000
0FC000
006000
07B800
FFFC00
03FFE0
0FFFE0
FCFFE0
F1FFE0
07BFE0
1E7FE0
79FFE0
F1CFE0
C783E0
1E0000
3C0000
ENDCHAR
STARTCHAR 208
ENCODING 208
SWIDTH 1368 0
DWIDTH 19 0
BBX 19 27 0 -6
BITMAP
006000
00E000
000000
009000
00E000
201000
A86000
700040
26F860
CDB720
686B40
00D000
01F800
01A800
015000
00F800
01AC00
005800
039800
039800
038800
009000
011800
019800
019800
079E00
0F0F00
ENDCHAR
STARTCHAR 209
ENCODING 209
SWIDTH 1368 0
DWIDTH 19 0
BBX 19 24 0 -6
BITMAP
FFFC00
7FFE00
3CFF00
1EFF80
0FCFC0
07C7E0
07C3E0
07C3E0
FFC3E0
7FC3E0
3CC3E0
1EC3E0
0FC3E0
07C3E0
07C3E0
07C3E0
FFC3E0
7FC3E0
3CC7E0
1ECFC0
0FFF80
07FF00
07FE00
07FC00
ENDCHAR
STARTCHAR 210
ENCODING 210
SWIDTH 1368 0
DWIDTH 19 0
BBX 19 27 0 -6
BITMAP
FFF800
7FFE00
3FFF00
1E7F80
0C7FC0
04CFC0
07C7E0
FFC3E0
7FC3E0
1C41E0
0CC1E0
07C1E0
07C1E0
FFC1E0
7E41E0
3C41E0
1CC1E0
0FC1E0
07C1E0
FE43E0
7C47E0
3CCFC0
1FFFC0
0FFF80
07FF00
07FE00
07F800
ENDCHAR
STARTCHAR 211
ENCODING 211
SWIDTH 1368 0
DWIDTH 19 0
BBX 16 23 2 -3
BITMAP
FFE0
7FF8
3FFC
3C3E
3C1E
3C0F
3C0F
3D4F
3D4F
3C0F
3C0F
3C0F
3C0F
3C8F
3C0F
3C0F
3C1F
3FFE
7FFC
FFFC
3B6E
7737
E633
ENDCHAR
STARTCHAR 212
ENCODING 212
SWIDTH 1368 0
DWIDTH 19 0
BBX 19 26 0 -6
BITMAP
0FFE00
3FFF00
7FFF80
FF0FC0
FF07C0
EF03E0
CF03E0
CF5BE0
8F5BE0
8F03E0
0F03E0
0F03E0
0F33E0
0F33E0
0F33E0
0F03E0
0F07C0
3FFF80
7FFF80
FFFF00
1D9BC0
198DE0
398660
738E60
E71CC0
E63080
ENDCHAR
STARTCHAR 213
ENCODING 213
SWIDTH 1368 0
DWIDTH 19 0
BBX 19 20 0 -2
BITMAP
FFF800
3FFE00
3FFE00
1FFF80
1C07C0
1C03E0
FC21E0
3C21E0
3C21E0
1C21E0
1C21E0
1C21E0
FCF9E0
3C71E0
3C21E0
1C07E0
11FFC0
2FFF80
2FFF80
FFFC00
ENDCHAR
STARTCHAR 214
ENCODING 214
SWIDTH 1368 0
DWIDTH 19 0
BBX 17 21 2 -6
BITMAP
004000
00E000
01F000
03FC00
079E00
0F0F00
1E0780
3E0780
7F0F00
FF1E00
E3FC00
71F800
386000
3C0300
1E0600
1F0E00
0F1C00
07F800
03F000
01E000
00C000
ENDCHAR
STARTCHAR 215
ENCODING 215
SWIDTH 1368 0
DWIDTH 19 0
BBX 14 24 3 -5
BITMAP
0B40
14A0
3FE0
3FE0
FFF8
FFF8
E01C
E000
E000
E000
E680
EEC0
FFE0
F9E0
E0C0
E080
E000
E01C
FFF8
FFF8
FFF8
3FE0
14A0
0B40
ENDCHAR
STARTCHAR 216
ENCODING 216
SWIDTH 1368 0
DWIDTH 19 0
BBX 16 25 3 -6
BITMAP
0180
01C0
03E0
07F0
0FF8
1E7C
3E3E
F80F
7C1F
3E3E
1E7C
0FF8
07F0
03EE
01FE
03F8
0660
0E60
0E60
0CE0
0CE0
0DE0
0FC0
0F80
0200
ENDCHAR
STARTCHAR 217
ENCODING 217
SWIDTH 1368 0
DWIDTH 19 0
BBX 17 23 2 -2
BITMAP
000080
000180
03F380
0FFF80
1FFF80
3FFF80
3F0F80
7C0780
780380
780080
F00000
F00400
F00C00
F01E00
F07E00
F0FF00
F0FF80
780780
7F0780
3FFF00
3FFE00
7FFC00
FFF800
ENDCHAR
STARTCHAR 218
ENCODING 218
SWIDTH 1368 0
DWIDTH 19 0
BBX 15 20 4 -2
BITMAP
1000
1000
1000
3000
F0E0
F0E0
3000
3000
3000
3000
3000
3380
3FC0
3FC0
3FC0
31C2
31E6
31E6
31FE
FC7C
ENDCHAR
STARTCHAR 219
ENCODING 219
SWIDTH 1368 0
DWIDTH 19 0
BBX 15 21 4 -2
BITMAP
0040
10E0
1150
1140
3140
F1C0
F070
3050
3150
30E0
3040
3000
3380
3FC0
3FC0
3FC0
31C2
31E6
31E6
31FE
FC7C
ENDCHAR
STARTCHAR 220
ENCODING 220
SWIDTH 1368 0
DWIDTH 19 0
BBX 18 25 1 -5
BITMAP
008000
070080
0F0780
7C0F00
7C0E00
FC1E00
3C1E00
3C0F00
1C0700
1C0700
3C0F00
3FFF00
3FFE00
3F3E00
3C0E00
1C0F00
1C0700
3C0700
3C0700
7C0F00
7E1F80
FF3FC0
3C0F00
180600
100200
ENDCHAR
STARTCHAR 221
ENCODING 221
SWIDTH 1368 0
DWIDTH 19 0
BBX 18 24 1 -6
BITMAP
000200
000400
000E00
003780
000F80
000E00
000000
000000
000C00
000400
000C00
000C00
003C00
004D40
000E80
000C00
300D00
F80E00
CC0D80
8E3800
A67800
667800
07F000
03C000
ENDCHAR
STARTCHAR 222
ENCODING 222
SWIDTH 1368 0
DWIDTH 19 0
BBX 19 22 0 -3
BITMAP
007FE0
007FE0
003FE0
003FC0
001F80
000D00
000B00
000B00
000D00
000B00
000D00
000B00
000D00
FF8B00
FF0D00
7E0B00
381B00
3C3F00
1E3F00
1FFE00
0FFC00
07F800
ENDCHAR
STARTCHAR 223
ENCODING 223
SWIDTH 1368 0
DWIDTH 19 0
BBX 17 23 1 -4
BITMAP
FF8000
6B8000
348000
1B8000
0C8000
0A8000
0E8000
0B8000
0C8000
0E8000
0A8000
0D8000
0D8000
0A8000
0D8080
0D8180
0D8780
0D9E80
0AFD80
1D2A80
1AD580
3FFF80
3FFF80
ENDCHAR
STARTCHAR 224
ENCODING 224
SWIDTH 1368 0
DWIDTH 19 0
BBX 19 24 0 -5
BITMAP
FFFC00
7FF800
3FF000
1FE000
0FC000
0FC000
0FC000
0FC000
0FC000
0FC000
0FC000
0FC000
0FC000
0FC000
0FC020
0FC060
0FC1E0
0FC3E0
0FFFE0
0FFFE0
1FFFE0
3FFFE0
7FFFE0
FFFFE0
ENDCHAR
STARTCHAR 225
ENCODING 225
SWIDTH 1368 0
DWIDTH 19 0
BBX 15 17 1 -6
BITMAP
FFF0
7FFC
3FFC
1E1E
1E0E
1E0E
1E0E
1E1C
1FF0
1C00
1C00
1C00
1C00
1C00
1C00
1800
1000
ENDCHAR
STARTCHAR 226
ENCODING 226
SWIDTH 1368 0
DWIDTH 19 0
BBX 17 19 1 -6
BITMAP
FFFC00
3FFF00
1F8700
0F8780
0F8780
0F8780
FF8780
7F8780
3F8780
1FFF00
0F7C00
0F0000
0F0000
0F0000
0F0000
0F0000
0E0000
0C0000
0C0000
ENDCHAR
STARTCHAR 227
ENCODING 227
SWIDTH 1368 0
DWIDTH 19 0
BBX 18 19 0 -6
BITMAP
FFFE00
39FF00
1D87C0
0F87C0
0F87C0
FF87C0
7187C0
3987C0
1D87C0
0FFFC0
FFFE00
71BE00
398000
1D8000
0F8000
0F8000
0F8000
0F8000
0F8000
ENDCHAR
STARTCHAR 228
ENCODING 228
SWIDTH 1368 0
DWIDTH 19 0
BBX 17 24 1 -6
BITMAP
008000
800080
000000
208200
000000
089000
7FF800
3FFE00
5FFE00
2F2F00
1F1700
0F0F00
0F0700
0F0E00
0FFC00
0E0800
0EF000
0E8000
0E8000
0E8000
0E8000
0E8000
0D0000
0A0000
ENDCHAR
STARTCHAR 229
ENCODING 229
SWIDTH 1368 0
DWIDTH 19 0
BBX 18 25 0 -6
BITMAP
078040
0FC1C0
1C6380
183F00
303E00
200000
000000
FFFF00
FFFF80
3FFFC0
0F87C0
0F87C0
0F87C0
FF87C0
FF87C0
3F87C0
0FFFC0
0FFFC0
FFFF80
FFBF00
3F8000
0F8000
0F8000
0F8000
0F8000
ENDCHAR
STARTCHAR 230
ENCODING 230
SWIDTH 1368 0
DWIDTH 19 0
BBX 15 22 1 -6
BITMAP
1FF8
1FF8
1FF8
0000
0000
0000
FFF0
7FFC
3FFC
1E1E
1E0E
1E0E
1E0E
1FF8
1FE0
1C00
1C00
1C00
1C00
1C00
1800
1000
ENDCHAR
STARTCHAR 231
ENCODING 231
SWIDTH 1368 0
DWIDTH 19 0
BBX 17 24 1 -6
BITMAP
1FF800
1FF800
1FF800
000000
000000
FFFC00
3FFF00
1F8700
0F8780
0F8780
0F8780
FF8780
7F8780
3F8780
1FFF00
0F7C00
0F0000
0F0000
0F0000
0F0000
0F0000
0E0000
0C0000
0C0000
ENDCHAR
STARTCHAR 232
ENCODING 232
SWIDTH 1368 0
DWIDTH 19 0
BBX 19 23 0 -4
BITMAP
FFFC00
FFFE00
FFFE00
FFFF00
EFFF00
CF0F80
8F0780
0F03C0
0F01E0
0F01E0
0FFFE0
0FFFE0
0FFFE0
0FFFE0
0F0000
0F0000
0F0000
0F0000
0F0000
1F0000
3F0000
7F0000
FF0000
ENDCHAR
STARTCHAR 233
ENCODING 233
SWIDTH 1368 0
DWIDTH 19 0
BBX 16 22 3 -6
BITMAP
0010
0010
0030
0070
00F0
0FF0
3FF0
7FF0
FCF0
F870
F030
F030
F870
FFF0
7FF0
3F30
0030
0031
0033
0036
003C
0038
ENDCHAR
STARTCHAR 234
ENCODING 234
SWIDTH 1368 0
DWIDTH 19 0
BBX 18 27 1 -6
BITMAP
800000
C00000
E00000
F00000
FFF000
FFFC00
7FFE00
7FFF00
7E1F00
780780
F00780
F00380
F001C0
F001C0
F001C0
F001C0
F001C0
F001C0
F071C0
783B80
783F80
3E0F00
3FFF80
1FFF80
0FFBC0
03F0C0
000040
ENDCHAR
STARTCHAR 235
ENCODING 235
SWIDTH 1368 0
DWIDTH 19 0
BBX 18 27 1 -6
BITMAP
800080
C00180
E00380
F00F80
FFFF80
FFFF80
7FFF00
7FFF00
7F3F00
780780
F00780
F00380
F001C0
F001C0
F001C0
F001C0
F001C0
F001C0
F071C0
783B80
783F80
3E0F00
3FFF80
1FFF80
0FFBC0
03F0C0
000040
ENDCHAR
STARTCHAR 236
ENCODING 236
SWIDTH 1368 0
DWIDTH 19 0
BBX 18 23 0 -4
BITMAP
C0E000
73F800
7FFC00
3FFE00
3E0F00
1E0700
0E0300
0E0700
0E0F00
0FFE00
0FFC00
0FF000
0FF000
0EF800
0E7C00
0E3C00
0E1E00
0C0F00
0C0700
0C0380
0C0180
0800C0
080040
ENDCHAR
STARTCHAR 237
ENCODING 237
SWIDTH 1368 0
DWIDTH 19 0
BBX 19 18 0 -6
BITMAP
016A80
00FF20
03FFC0
01FFC0
0FC1E0
0381C0
1FC000
07F800
03FE00
001F00
300C00
F81F00
3FFC00
7FF800
3FF600
176000
251800
080000
ENDCHAR
STARTCHAR 238
ENCODING 238
SWIDTH 1368 0
DWIDTH 19 0
BBX 18 22 1 -4
BITMAP
007C00
01FE00
07FF00
07FF00
0FFFC0
1F87C0
1C0380
1C0300
1E0200
0F8000
0FE000
03F800
01FE00
003F00
000700
780700
FC0F00
FFFF00
FFFE00
DFFC00
8FF800
87E000
ENDCHAR
STARTCHAR 239
ENCODING 239
SWIDTH 1368 0
DWIDTH 19 0
BBX 16 16 2 -3
BITMAP
0810
1818
381C
381C
781E
700E
F00F
F00F
F00F
F81F
FC3F
7FFE
7FFE
3FFC
1FF8
07E0
ENDCHAR
STARTCHAR 240
ENCODING 240
SWIDTH 1368 0
DWIDTH 19 0
BBX 16 28 3 -6
BITMAP
8000
8000
8000
C000
C000
C000
E000
E07F
E03F
E01E
F01E
F01E
F01E
F01E
F01E
F01E
F01E
F01E
F01E
F01E
F01E
F01E
F01E
F83E
7FFC
7FF8
3FF0
0FE0
ENDCHAR
STARTCHAR 241
ENCODING 241
SWIDTH 1368 0
DWIDTH 19 0
BBX 15 28 3 -6
BITMAP
8002
8002
8002
C006
C006
C006
E00E
E00E
E00E
F01E
F01E
F01E
F01E
F01E
F6DE
F6DE
F6DE
F01E
F01E
F01E
F01E
F01E
F01E
F01E
783C
3FF8
1FF0
0FE0
ENDCHAR
STARTCHAR 242
ENCODING 242
SWIDTH 1368 0
DWIDTH 19 0
BBX 18 28 1 -6
BITMAP
800040
800040
C000C0
CE1CC0
C738C0
E331C0
E121C0
F003C0
F0C3C0
F0C3C0
F807C0
F807C0
F807C0
F807C0
F807C0
F807C0
F807C0
F807C0
F807C0
F807C0
FC0FC0
7C0F80
7E1F80
3F3F00
1FFF00
0FFE00
07FC00
03F800
ENDCHAR
STARTCHAR 243
ENCODING 243
SWIDTH 1368 0
DWIDTH 19 0
BBX 19 16 0 -4
BITMAP
7801E0
7C01E0
3C03C0
1C0380
BE07C0
0E0700
5F0FA0
070E00
2F9F40
17FE80
01F800
0BFD00
00F000
05FA00
006000
00F000
ENDCHAR
STARTCHAR 244
ENCODING 244
SWIDTH 1368 0
DWIDTH 19 0
BBX 19 22 0 -4
BITMAP
360000
1C1B00
080E00
000400
000000
008800
7871E0
7C21E0
3C03C0
1C0380
BE07C0
0E0700
5F0FA0
070E00
2F9F40
17FE80
01F800
0BFD00
00F000
05FA00
006000
00F000
ENDCHAR
STARTCHAR 245
ENCODING 245
SWIDTH 1368 0
DWIDTH 19 0
BBX 19 23 0 -4
BITMAP
07FE00
07FE00
07FE00
07FE00
000000
000000
000000
7801E0
7C01E0
3C03C0
1C0380
BE07C0
0E0700
5F0FA0
070E00
2F9F40
17FE80
01F800
0BFD00
00F000
05FA00
006000
00F000
ENDCHAR
STARTCHAR 246
ENCODING 246
SWIDTH 1368 0
DWIDTH 19 0
BBX 19 16 0 -1
BITMAP
240000
520000
520000
FF07E0
7E03E0
3C01C0
1C01C0
1C01C0
1C0180
0C2180
0E7380
0E7380
07DF00
03DE00
038E00
010400
ENDCHAR
STARTCHAR 247
ENCODING 247
SWIDTH 1368 0
DWIDTH 19 0
BBX 18 28 1 -6
BITMAP
800000
800000
800000
C00000
C00000
C00000
C00000
E00000
E00000
E00040
F00040
F00000
F00140
F00080
F00340
F00280
F80140
F80280
78C240
7BF2C0
7FFBC0
7FFFC0
7F3F80
7E1F80
7C0F80
780780
700380
600380
ENDCHAR
STARTCHAR 248
ENCODING 248
SWIDTH 1368 0
DWIDTH 19 0
BBX 18 26 1 -6
BITMAP
003800
003800
800040
870040
870040
C070C0
C070C0
E001C0
E001C0
E001C0
E001C0
F003C0
F003C0
F003C0
F00380
F00380
70C380
73F380
77FB80
7FFF80
7F3F80
3E1F00
3C0F00
380700
300300
200100
ENDCHAR
STARTCHAR 249
ENCODING 249
SWIDTH 1368 0
DWIDTH 19 0
BBX 18 28 1 -6
BITMAP
800040
800040
800040
800040
C000C0
C000C0
C000C0
E001C0
E001C0
E001C0
F003C0
F003C0
F003C0
F0C3C0
F0C3C0
F0C3C0
F0C3C0
F0C3C0
F1E3C0
F3F3C0
F7FBC0
FF3FC0
FE1FC0
FC0FC0
F807C0
F807C0
F003C0
E001C0
ENDCHAR
STARTCHAR 250
ENCODING 250
SWIDTH 1368 0
DWIDTH 19 0
BBX 18 13 1 -1
BITMAP
3FFF80
7FFF00
F01E00
E03C00
C07800
807000
00E000
01C000
038000
0F00C0
1FFFC0
3FFF80
7FFF00
ENDCHAR
STARTCHAR 251
ENCODING 251
SWIDTH 1368 0
DWIDTH 19 0
BBX 14 20 3 -2
BITMAP
FFFC
FFFC
FFFC
E01C
E01C
C01C
0078
00F0
01E0
01C0
0380
0700
0E00
1E00
3C0C
F81C
F81C
FFFC
FFFC
FFFC
ENDCHAR
STARTCHAR 252
ENCODING 252
SWIDTH 1368 0
DWIDTH 19 0
BBX 19 26 0 -6
BITMAP
1FFF80
1FFF80
1FFF80
1C0380
1C0380
FF8780
7F0F00
3E1E00
1C3C00
087800
00F000
01E000
03C000
078000
0F8000
1F0000
1F0000
1FFF80
1FFF80
1FFF80
000180
000180
0007E0
0003C0
000180
000180
ENDCHAR
STARTCHAR 253
ENCODING 253
SWIDTH 1368 0
DWIDTH 19 0
BBX 14 24 3 -5
BITMAP
FFFC
F264
E6CC
CD9C
993C
FFFC
0038
00EC
01DC
01B8
0370
06E0
0FC0
1D80
3B00
7600
DC00
B800
7FFC
F264
E6CC
CD9C
993C
FFFC
ENDCHAR
STARTCHAR 254
ENCODING 254
SWIDTH 1368 0
DWIDTH 19 0
BBX 19 24 0 -5
BITMAP
FFFFE0
7FFFE0
3FFFE0
1FFFE0
0FFFE0
07FFE0
0007E0
001FC0
003F80
003F00
007E00
00FC00
01F800
03F000
07E000
0FC000
3F8000
7F0000
7FFE00
7FFF00
7FFF80
7FFFC0
7FFFE0
7FFFE0
ENDCHAR
STARTCHAR 255
ENCODING 255
SWIDTH 1368 0
DWIDTH 19 0
BBX 18 23 1 -6
BITMAP
000E00
7C3F00
FE7F80
FFFF80
E7F380
000700
000F00
001E00
003C00
007800
007000
00E000
01C000
038000
0F0000
1E0000
3C0000
787000
F9F840
FFFCC0
FFFF80
7F0700
380000
ENDCHAR
ENDFONT
